#!OML:ASF X:\für Bonn\!DataBase\2005_08_10_Bjorn_Final\c3d\bjorn.ASF
:FULLY-SPECIFIED
:DEGREES
125
root -20.4755 17.981 -13.6241 -169.592 -194.129 -185.928
lowerback -0.515749 4.27906 7.53375
upperback 3.9009 5.42472 2.0618
thorax 4.85603 2.93455 -1.7656
lowerneck -8.28349 2.15449 3.42517
upperneck 5.87585 2.86784 -4.80668
head 3.53989 1.30315 -2.04835
rclavicle -1.98785e-015 -7.95139e-015
rhumerus -22.1089 8.51141 -95.2153
rradius 82.0039
rwrist 7.28073
rhand -27.613 24.777
rfingers 7.12502
rthumb -1.0121 -5.20039
lclavicle -1.98785e-015 -7.95139e-015
lhumerus -56.6393 -18.6808 101.571
lradius 68.7486
lwrist 8.37889
lhand -32.6018 -18.0024
lfingers 7.12502
lthumb -5.82981 11.8974
rfemur -8.84149 -10.2148 19.8421
rtibia 38.976
rfoot -31.5033 12.4985
rtoes -27.2596
lfemur -40.2403 2.85028 -18.0923
ltibia 76.8729
lfoot -18.6358 -0.0714205
ltoes -16.8906
126
root -20.396 18.0604 -13.3689 -169.606 -194.446 -185.733
lowerback -0.633175 4.43938 7.30829
upperback 3.7874 5.64917 1.81215
thorax 4.8251 3.03936 -1.88166
lowerneck -7.99146 2.00029 3.30313
upperneck 6.0468 2.66245 -4.49344
head 3.52164 1.21384 -1.93312
rclavicle -1.33186e-014 1.27222e-014
rhumerus -22.1351 9.56502 -95.542
rradius 83.3236
rwrist 6.74424
rhand -27.623 25.3164
rfingers 7.12502
rthumb -1.0218 -4.66095
lclavicle -1.33186e-014 1.27222e-014
lhumerus -57.1755 -18.7311 101.178
lradius 68.7666
lwrist 8.19396
lhand -32.9387 -18.7566
lfingers 7.12502
lthumb -6.15508 11.134
rfemur -6.90577 -10.2176 19.4466
rtibia 37.0595
rfoot -29.7585 12.6706
rtoes -27.0078
lfemur -41.1911 2.5906 -18.8961
ltibia 74.8158
lfoot -19.1757 -0.305162
ltoes -17.605
127
root -20.3139 18.1398 -13.1125 -169.686 -194.795 -185.564
lowerback -0.721041 4.57493 7.12087
upperback 3.70947 5.84051 1.56855
thorax 4.8159 3.13058 -2.01418
lowerneck -7.75429 1.8567 3.29187
upperneck 6.27147 2.46927 -4.31122
head 3.54025 1.12711 -1.8823
rclavicle 2.78299e-014 8.74653e-015
rhumerus -22.2635 10.5288 -95.8907
rradius 84.6291
rwrist 6.25254
rhand -27.5235 26.049
rfingers 7.12502
rthumb -0.92571 -3.92873
lclavicle 2.78299e-014 8.74653e-015
lhumerus -57.6565 -18.7756 100.757
lradius 68.837
lwrist 8.02614
lhand -33.1394 -19.6198
lfingers 7.12502
lthumb -6.34884 10.2651
rfemur -4.9306 -10.2381 19.0607
rtibia 35.1511
rfoot -27.693 12.8647
rtoes -26.6337
lfemur -41.9118 2.32508 -19.6534
ltibia 72.535
lfoot -19.5269 -0.644547
ltoes -18.7235
128
root -20.2308 18.2173 -12.849 -169.805 -195.119 -185.396
lowerback -0.86296 4.68434 6.88298
upperback 3.67515 5.9924 1.3264
thorax 4.87433 3.20299 -2.11268
lowerneck -7.58833 1.75473 3.34027
upperneck 6.57685 2.32569 -4.13162
head 3.605 1.06556 -1.84097
rclavicle -7.35503e-015 -1.19271e-015
rhumerus -22.4354 11.5545 -96.307
rradius 85.7457
rwrist 5.99267
rhand -27.5824 26.8053
rfingers 7.12502
rthumb -0.982553 -3.17221
lclavicle -7.35503e-015 -1.19271e-015
lhumerus -58.1785 -18.8203 100.318
lradius 69.0968
lwrist 7.94206
lhand -33.3072 -20.2353
lfingers 7.12502
lthumb -6.5108 9.64466
rfemur -2.98267 -10.3289 18.6244
rtibia 33.3434
rfoot -25.2324 13.2336
rtoes -25.7664
lfemur -42.4042 2.10994 -20.402
ltibia 70.0635
lfoot -19.737 -1.16979
ltoes -19.1933
129
root -20.1455 18.2921 -12.5788 -169.925 -195.452 -185.245
lowerback -1.10265 4.81299 6.64364
upperback 3.68477 6.16181 1.07848
thorax 5.03711 3.28721 -2.20254
lowerneck -7.57175 1.64994 3.42046
upperneck 6.93344 2.1674 -3.90469
head 3.71653 0.998477 -1.79067
rclavicle 9.48203e-014 -9.14409e-015
rhumerus -22.6203 12.5606 -96.6923
rradius 86.6615
rwrist 5.84504
rhand -27.8423 27.6013
rfingers 7.12502
rthumb -1.23359 -2.37487
lclavicle 9.48203e-014 -9.14409e-015
lhumerus -58.6164 -18.9413 99.8836
lradius 69.3652
lwrist 7.84315
lhand -33.4214 -20.837
lfingers 7.12502
lthumb -6.62105 9.03946
rfemur -1.15447 -10.4392 18.1801
rtibia 31.7158
rfoot -22.5088 13.5606
rtoes -24.6671
lfemur -42.7127 1.91656 -21.1277
ltibia 67.4441
lfoot -19.8298 -1.82728
ltoes -19.0566
130
root -20.0585 18.3682 -12.3014 -170.103 -195.751 -185.146
lowerback -1.34449 4.95617 6.40052
upperback 3.71477 6.35127 0.853601
thorax 5.2217 3.3813 -2.26235
lowerneck -7.44166 1.54298 3.6009
upperneck 7.11425 2.00085 -3.76987
head 3.74804 0.928145 -1.78885
rclavicle 7.40473e-014 5.1684e-015
rhumerus -22.8875 13.6082 -96.9986
rradius 87.4255
rwrist 5.74858
rhand -28.1792 28.6467
rfingers 7.12502
rthumb -1.559 -1.3273
lclavicle 7.40473e-014 5.1684e-015
lhumerus -58.982 -19.1325 99.4905
lradius 69.6438
lwrist 7.85117
lhand -33.4161 -21.2962
lfingers 7.12502
lthumb -6.61596 8.58045
rfemur 0.585178 -10.4773 17.7648
rtibia 30.2904
rfoot -19.6002 13.6631
rtoes -23.9181
lfemur -42.7783 1.78457 -21.7895
ltibia 64.6861
lfoot -19.6966 -2.38174
ltoes -18.8208
